{
    "accessors" : [
        {
            "bufferView" : 0, 
            "componentType" : 5123, 
            "count" : 2358, 
            "max" : [
                1685
            ], 
            "min" : [
                0
            ], 
            "type" : "SCALAR"
        }, 
        {
            "bufferView" : 1, 
            "componentType" : 5126, 
            "count" : 1686, 
            "max" : [
                0.48075103759765625, 
                0.20071232318878174, 
                -0.0202825665473938
            ], 
            "min" : [
                -0.35074615478515625, 
                -0.3642876446247101, 
                -1.2563824653625488
            ], 
            "type" : "VEC3"
        }, 
        {
            "bufferView" : 2, 
            "componentType" : 5126, 
            "count" : 1686, 
            "max" : [
                0.9997685551643372, 
                0.999944269657135, 
                1.0
            ], 
            "min" : [
                -0.9997695684432983, 
                -0.9958634376525879, 
                -1.0
            ], 
            "type" : "VEC3"
        }, 
        {
            "bufferView" : 3, 
            "componentType" : 5126, 
            "count" : 1686, 
            "max" : [
                0.9999998807907104, 
                0.9986407160758972, 
                0.9938260912895203, 
                1.0
            ], 
            "min" : [
                -0.9999998807907104, 
                -0.9999019503593445, 
                -0.9998892545700073, 
                -1.0
            ], 
            "type" : "VEC4"
        }, 
        {
            "bufferView" : 4, 
            "componentType" : 5126, 
            "count" : 1686, 
            "max" : [
                0.9860000014305115, 
                0.983500000089407
            ], 
            "min" : [
                0.01119999960064888, 
                0.01380002498626709
            ], 
            "type" : "VEC2"
        }
    ], 
    "asset" : {
        "generator" : "Khronos Blender glTF 2.0 exporter", 
        "version" : "2.0"
    }, 
    "bufferViews" : [
        {
            "buffer" : 0, 
            "byteLength" : 4716, 
            "byteOffset" : 0, 
            "target" : 34963
        }, 
        {
            "buffer" : 0, 
            "byteLength" : 20232, 
            "byteOffset" : 4716, 
            "target" : 34962
        }, 
        {
            "buffer" : 0, 
            "byteLength" : 20232, 
            "byteOffset" : 24948, 
            "target" : 34962
        }, 
        {
            "buffer" : 0, 
            "byteLength" : 26976, 
            "byteOffset" : 45180, 
            "target" : 34962
        }, 
        {
            "buffer" : 0, 
            "byteLength" : 13488, 
            "byteOffset" : 72156, 
            "target" : 34962
        }
    ], 
    "buffers" : [
        {
            "byteLength" : 85644, 
            "uri" : "princess.bin"
        }
    ], 
    "images" : [
        {
            "uri" : "Princess.png"
        }
    ], 
    "materials" : [
        {
            "alphaMode" : "BLEND", 
            "name" : "Material__222", 
            "pbrMetallicRoughness" : {
                "baseColorFactor" : [
                    0.5879999995231628, 
                    0.5879999995231628, 
                    0.5879999995231628, 
                    1.0
                ], 
                "baseColorTexture" : {
                    "index" : 0
                }, 
                "metallicFactor" : 0.0
            }
        }
    ], 
    "meshes" : [
        {
            "name" : "Princess_posed", 
            "primitives" : [
                {
                    "attributes" : {
                        "NORMAL" : 2, 
                        "POSITION" : 1, 
                        "TANGENT" : 3, 
                        "TEXCOORD_0" : 4
                    }, 
                    "indices" : 0, 
                    "material" : 0
                }
            ]
        }
    ], 
    "nodes" : [
        {
            "name" : "Camera", 
            "rotation" : [
                0.483536034822464, 
                0.33687159419059753, 
                -0.20870360732078552, 
                0.7804827094078064
            ], 
            "translation" : [
                7.481131553649902, 
                5.34366512298584, 
                6.5076398849487305
            ]
        }, 
        {
            "name" : "Lamp", 
            "rotation" : [
                0.16907575726509094, 
                0.7558802962303162, 
                -0.27217137813568115, 
                0.570947527885437
            ], 
            "scale" : [
                1.0, 
                1.0, 
                0.9999999403953552
            ], 
            "translation" : [
                -2.1094541549682617, 
                1.5129508972167969, 
                1.215575098991394
            ]
        }, 
        {
            "mesh" : 0, 
            "name" : "Princess_posed", 
            "rotation" : [
                0.7071068286895752, 
                0.0, 
                -0.0, 
                0.7071067094802856
            ], 
            "translation" : [
                0.0, 
                -0.011112602427601814, 
                -0.0
            ]
        }
    ], 
    "samplers" : [
        {}
    ], 
    "scene" : 0, 
    "scenes" : [
        {
            "name" : "Scene", 
            "nodes" : [
                1, 
                0, 
                2
            ]
        }
    ], 
    "textures" : [
        {
            "sampler" : 0, 
            "source" : 0
        }
    ]
}
