{
    "accessors" : [
        {
            "bufferView" : 0,
            "componentType" : 5123,
            "count" : 5718,
            "max" : [
                3811
            ],
            "min" : [
                0
            ],
            "type" : "SCALAR"
        },
        {
            "bufferView" : 1,
            "componentType" : 5126,
            "count" : 3812,
            "max" : [
                4.064732551574707,
                10.332596778869629,
                2.035393714904785
            ],
            "min" : [
                -4.229453086853027,
                -0.08948385715484619,
                -2.222991943359375
            ],
            "type" : "VEC3"
        },
        {
            "bufferView" : 2,
            "componentType" : 5126,
            "count" : 3812,
            "max" : [
                1.0,
                1.0,
                1.0
            ],
            "min" : [
                -1.0,
                -1.0,
                -1.0
            ],
            "type" : "VEC3"
        },
        {
            "bufferView" : 3,
            "componentType" : 5126,
            "count" : 3812,
            "max" : [
                1.0,
                1.0,
                1.0,
                -1.0
            ],
            "min" : [
                -1.0,
                -1.0,
                -1.0,
                -1.0
            ],
            "type" : "VEC4"
        },
        {
            "bufferView" : 4,
            "componentType" : 5126,
            "count" : 3812,
            "max" : [
                0.9975000023841858,
                0.9975000000558794
            ],
            "min" : [
                0.0024999999441206455,
                0.002499997615814209
            ],
            "type" : "VEC2"
        },
        {
            "bufferView" : 5,
            "componentType" : 5126,
            "count" : 3812,
            "max" : [
                0.3157729506492615,
                0.05093485116958618
            ],
            "min" : [
                0.014323115348815918,
                0.01534360647201538
            ],
            "type" : "VEC2"
        },
        {
            "bufferView" : 6,
            "componentType" : 5121,
            "count" : 81,
            "max" : [
                56
            ],
            "min" : [
                0
            ],
            "type" : "SCALAR"
        },
        {
            "bufferView" : 7,
            "componentType" : 5126,
            "count" : 57,
            "max" : [
                3.3534271717071533,
                4.8435540199279785,
                1.6209484338760376
            ],
            "min" : [
                -3.4552862644195557,
                0.8351781368255615,
                -1.8202600479125977
            ],
            "type" : "VEC3"
        },
        {
            "bufferView" : 8,
            "componentType" : 5126,
            "count" : 57,
            "max" : [
                1.0,
                -0.0,
                1.0
            ],
            "min" : [
                -1.0,
                -0.0,
                -1.0
            ],
            "type" : "VEC3"
        },
        {
            "bufferView" : 9,
            "componentType" : 5126,
            "count" : 57,
            "max" : [
                1.0,
                0.039150483906269073,
                1.0,
                -1.0
            ],
            "min" : [
                -1.0,
                -1.0,
                -1.0,
                -1.0
            ],
            "type" : "VEC4"
        },
        {
            "bufferView" : 10,
            "componentType" : 5126,
            "count" : 57,
            "max" : [
                0.8546428680419922,
                0.8216758221387863
            ],
            "min" : [
                0.22228021919727325,
                0.0007163882255554199
            ],
            "type" : "VEC2"
        },
        {
            "bufferView" : 11,
            "componentType" : 5126,
            "count" : 57,
            "max" : [
                0.24678921699523926,
                0.04783445596694946
            ],
            "min" : [
                0.21507352590560913,
                0.01611870527267456
            ],
            "type" : "VEC2"
        }
    ],
    "asset" : {
        "generator" : "Khronos Blender glTF 2.0 exporter",
        "version" : "2.0"
    },
    "bufferViews" : [
        {
            "buffer" : 0,
            "byteLength" : 11436,
            "byteOffset" : 0,
            "target" : 34963
        },
        {
            "buffer" : 0,
            "byteLength" : 45744,
            "byteOffset" : 11436,
            "target" : 34962
        },
        {
            "buffer" : 0,
            "byteLength" : 45744,
            "byteOffset" : 57180,
            "target" : 34962
        },
        {
            "buffer" : 0,
            "byteLength" : 60992,
            "byteOffset" : 102924,
            "target" : 34962
        },
        {
            "buffer" : 0,
            "byteLength" : 30496,
            "byteOffset" : 163916,
            "target" : 34962
        },
        {
            "buffer" : 0,
            "byteLength" : 30496,
            "byteOffset" : 194412,
            "target" : 34962
        },
        {
            "buffer" : 0,
            "byteLength" : 81,
            "byteOffset" : 224908,
            "target" : 34963
        },
        {
            "buffer" : 0,
            "byteLength" : 684,
            "byteOffset" : 224992,
            "target" : 34962
        },
        {
            "buffer" : 0,
            "byteLength" : 684,
            "byteOffset" : 225676,
            "target" : 34962
        },
        {
            "buffer" : 0,
            "byteLength" : 912,
            "byteOffset" : 226360,
            "target" : 34962
        },
        {
            "buffer" : 0,
            "byteLength" : 456,
            "byteOffset" : 227272,
            "target" : 34962
        },
        {
            "buffer" : 0,
            "byteLength" : 456,
            "byteOffset" : 227728,
            "target" : 34962
        }
    ],
    "buffers" : [
        {
            "byteLength" : 228184,
            "uri" : "wall.bin"
        }
    ],
    "images" : [
        {
            "uri" : "color_map.png"
        },
        {
            "uri" : "AO building1.png"
        },
        {
            "uri" : "color_map.png"
        },
        {
            "uri" : "building_townhouse_ao.png"
        }
    ],
    "materials" : [
        {
            "name" : "Building 1",
            "pbrMetallicRoughness" : {
                "baseColorFactor" : [
                    0.6400000190734865,
                    0.5548328005497574,
                    0.31134241091225157,
                    1.0
                ],
                "baseColorTexture" : {
                    "index" : 1
                },
                "metallicFactor" : 0.0
            }
        },
        {
            "name" : "building 1 window",
            "pbrMetallicRoughness" : {
                "baseColorFactor" : [
                    0.1969574242376897,
                    0.1969574242376897,
                    0.1969574242376897,
                    1.0
                ],
                "baseColorTexture" : {
                    "index" : 0
                },
                "metallicFactor" : 0.0
            }
        },
        {
            "name" : "building townhouse",
            "pbrMetallicRoughness" : {
                "baseColorFactor" : [
                    0.6400000190734865,
                    0.5548328005497574,
                    0.31134241091225157,
                    1.0
                ],
                "baseColorTexture" : {
                    "index" : 3
                },
                "metallicFactor" : 0.0
            }
        },
        {
            "name" : "building townhouse window",
            "pbrMetallicRoughness" : {
                "baseColorFactor" : [
                    0.1969574242376897,
                    0.1969574242376897,
                    0.1969574242376897,
                    1.0
                ],
                "baseColorTexture" : {
                    "index" : 3
                },
                "metallicFactor" : 0.0
            }
        }
    ],
    "meshes" : [
        {
            "name" : "building.01",
            "primitives" : [
                {
                    "attributes" : {
                        "NORMAL" : 2,
                        "POSITION" : 1,
                        "TANGENT" : 3,
                        "TEXCOORD_0" : 4,
                        "TEXCOORD_1" : 5
                    },
                    "indices" : 0,
                    "material" : 2
                },
                {
                    "attributes" : {
                        "NORMAL" : 8,
                        "POSITION" : 7,
                        "TANGENT" : 9,
                        "TEXCOORD_0" : 10,
                        "TEXCOORD_1" : 11
                    },
                    "indices" : 6,
                    "material" : 3
                }
            ]
        }
    ],
    "nodes" : [
        {
            "mesh" : 0,
            "name" : "building.01",
            "scale" : [
                2.013695001602173,
                1.8384771347045898,
                0.7170552611351013
            ]
        },
        {
            "name" : "Point",
            "translation" : [
                4.859521865844727,
                4.787275314331055,
                6.51179313659668
            ]
        }
    ],
    "samplers" : [
        {}
    ],
    "scene" : 0,
    "scenes" : [
        {
            "name" : "Scene",
            "nodes" : [
                1,
                0
            ]
        }
    ],
    "textures" : [
        {
            "sampler" : 0,
            "source" : 0
        },
        {
            "sampler" : 0,
            "source" : 1
        },
        {
            "sampler" : 0,
            "source" : 0
        },
        {
            "sampler" : 0,
            "source" : 3
        }
    ]
}
